<?xml version="1.0" encoding="UTF-8" standalone="no"?>
<!-- Created with Inkscape (http://www.inkscape.org/) -->

<svg
   width="20mm"
   height="20mm"
   viewBox="0 0 20 20"
   version="1.1"
   id="svg2597"
   inkscape:version="1.1.2 (0a00cf5339, 2022-02-04)"
   sodipodi:docname="level2.svg"
   xmlns:inkscape="http://www.inkscape.org/namespaces/inkscape"
   xmlns:sodipodi="http://sodipodi.sourceforge.net/DTD/sodipodi-0.dtd"
   xmlns="http://www.w3.org/2000/svg"
   xmlns:svg="http://www.w3.org/2000/svg">
  <sodipodi:namedview
     id="namedview2599"
     pagecolor="#ffffff"
     bordercolor="#666666"
     borderopacity="1.0"
     inkscape:pageshadow="2"
     inkscape:pageopacity="0.0"
     inkscape:pagecheckerboard="0"
     inkscape:document-units="mm"
     showgrid="false"
     fit-margin-top="0"
     fit-margin-left="0"
     fit-margin-right="0"
     fit-margin-bottom="0"
     inkscape:zoom="8.1437115"
     inkscape:cx="55.625743"
     inkscape:cy="-11.29706"
     inkscape:window-width="1877"
     inkscape:window-height="2125"
     inkscape:window-x="1959"
     inkscape:window-y="31"
     inkscape:window-maximized="0"
     inkscape:current-layer="layer1" />
  <defs
     id="defs2594">
    <clipPath
       clipPathUnits="userSpaceOnUse"
       id="clipPath2047">
      <rect
         style="opacity:1;fill:#ff00ff;fill-opacity:1;stroke:none;stroke-width:1.5;stroke-miterlimit:4.7;stroke-dasharray:none;stroke-opacity:0.959286"
         id="rect2049"
         width="26.714878"
         height="26.175507"
         x="-7.3449249"
         y="-12.325286"
         transform="rotate(-14.196402)" />
    </clipPath>
    <clipPath
       clipPathUnits="userSpaceOnUse"
       id="clipPath2410">
      <path
         id="path2412"
         style="display:block;opacity:1;fill:#ff0000;fill-opacity:1;stroke:none;stroke-width:1.5;stroke-miterlimit:4.7;stroke-dasharray:none;stroke-opacity:0.959286"
         d="M 14.746932,-0.56718863 10.848978,11.525613 -2.9072885,15.031342 1.1090045,30.787487 22.585213,25.313402 23.402734,25.576952 30.222473,4.4211375 Z" />
    </clipPath>
    <inkscape:path-effect
       effect="powerclip"
       id="path-effect2414"
       is_visible="true"
       lpeversion="1"
       inverse="true"
       flatten="false"
       hide_clip="false"
       message="Use fill-rule evenodd on &lt;b&gt;fill and stroke&lt;/b&gt; dialog if no flatten result after convert clip to paths." />
  </defs>
  <g
     inkscape:label="Layer 1"
     inkscape:groupmode="layer"
     id="layer1"
     transform="translate(27.225363,-133.12747)">
    <path
       id="rect22373"
       style="fill:#ffffff;stroke-width:1;stroke-linecap:round;stroke-linejoin:round;paint-order:stroke markers fill"
       d="m -20.307956,147.22986 c -0.782115,1.31488 -1.59732,2.70956 -2.279447,3.7853 -0.03723,1.01316 0.930503,1.56592 1.923396,1.47019 2.413699,0.008 4.749303,0.0265 7.162871,0.003 0.865665,-0.0771 1.683752,-0.55522 1.637626,-1.44487 -0.661592,-1.09586 -1.478711,-2.49422 -2.264461,-3.81372 z m -2.383834,6.76238 v 0.0103 h 10.972457 v -0.0103 z" />
    <path
       id="path19508"
       style="fill:#000000;stroke-width:0.0170602"
       d="m -15.819858,137.69814 c -0.03374,-1.4e-4 -0.06766,0.003 -0.107487,0.01 -0.05975,0.0103 -0.149154,0.0374 -0.198954,0.0605 -0.0498,0.0231 -0.125212,0.0733 -0.167432,0.11111 -0.04222,0.0378 -0.101978,0.11044 -0.132808,0.16175 -0.03437,0.0572 -0.0663,0.14397 -0.08268,0.22427 -0.02123,0.10425 -0.02325,0.1519 -0.0088,0.23409 0.01,0.0568 0.03733,0.14484 0.06046,0.19534 0.02313,0.0505 0.07861,0.1308 0.123507,0.1788 0.0449,0.048 0.115006,0.10694 0.155546,0.13074 0.04054,0.0238 0.106187,0.0538 0.145727,0.0667 0.04581,0.0149 0.13099,0.0216 0.235128,0.0186 0.144313,-0.004 0.176312,-0.0106 0.274402,-0.0589 0.06918,-0.0341 0.144578,-0.0902 0.199988,-0.14883 0.04893,-0.0517 0.108235,-0.13618 0.131775,-0.18758 0.02354,-0.0514 0.05064,-0.14204 0.05994,-0.20154 0.01304,-0.0838 0.01095,-0.137 -0.0093,-0.2341 -0.01531,-0.0734 -0.04953,-0.16377 -0.08217,-0.21807 -0.03067,-0.0511 -0.09007,-0.12343 -0.132292,-0.16123 -0.04222,-0.0378 -0.117051,-0.0875 -0.165881,-0.11007 -0.04883,-0.0227 -0.13584,-0.0498 -0.19327,-0.0605 -0.03828,-0.007 -0.07168,-0.0107 -0.10542,-0.0109 z m -2.3797,1.39837 c -0.02697,5e-5 -0.05667,0.001 -0.08992,0.003 -0.129159,0.006 -0.207917,0.0191 -0.281637,0.047 -0.0563,0.0213 -0.153734,0.0724 -0.216524,0.11369 -0.06278,0.0413 -0.149693,0.11436 -0.192753,0.16226 -0.04306,0.0479 -0.10403,0.1339 -0.135909,0.1912 -0.03188,0.0573 -0.07231,0.15224 -0.0894,0.21084 l -0.03101,0.10646 h -0.163297 c -0.08976,0 -0.208387,0.008 -0.264067,0.0186 -0.05568,0.0101 -0.156882,0.0451 -0.224792,0.0775 -0.07456,0.0356 -0.159697,0.094 -0.214457,0.1478 -0.04988,0.049 -0.114904,0.13208 -0.144694,0.18448 -0.0298,0.0524 -0.06685,0.14381 -0.08217,0.20361 -0.01972,0.077 -0.02514,0.15377 -0.01964,0.26303 0.0053,0.10351 0.02023,0.18703 0.04599,0.25373 0.02112,0.0547 0.07419,0.14621 0.117823,0.20361 0.04467,0.0588 0.125778,0.13655 0.185518,0.17725 0.05836,0.0397 0.152183,0.089 0.208773,0.10955 l 0.102836,0.0377 -5.17e-4,1.46916 c -6e-4,1.0929 -0.0064,1.51278 -0.02274,1.63969 l -0.02222,0.17053 -1.862419,3.05098 -1.862419,3.05149 v 0.10697 c 0,0.0588 0.01198,0.17508 0.02636,0.25838 0.01438,0.0833 0.04488,0.21274 0.0677,0.28784 0.02282,0.0751 0.07189,0.19935 0.109037,0.27595 0.03715,0.0766 0.102527,0.19279 0.145727,0.25839 0.0432,0.0656 0.120386,0.16636 0.171566,0.22376 0.05118,0.0574 0.141178,0.14697 0.199988,0.19947 0.05881,0.0525 0.139991,0.11844 0.180351,0.14624 0.04036,0.0279 0.121147,0.0776 0.179317,0.11059 0.05817,0.033 0.167302,0.0857 0.242362,0.11679 0.07506,0.0312 0.199763,0.0727 0.277503,0.0925 0.07774,0.0198 0.196893,0.0426 0.264583,0.0506 0.06769,0.007 2.034914,0.015 4.371309,0.016 2.703321,0.001 4.301401,-0.004 4.395081,-0.0145 0.08097,-0.009 0.223123,-0.0367 0.315743,-0.0605 0.100874,-0.0259 0.250575,-0.083 0.37362,-0.14314 0.112976,-0.0552 0.266375,-0.14604 0.341065,-0.20154 0.07469,-0.0555 0.204938,-0.17427 0.289388,-0.26407 0.08445,-0.0898 0.194826,-0.22924 0.244946,-0.30954 0.05012,-0.0803 0.116842,-0.20595 0.148312,-0.27905 0.03147,-0.0731 0.07615,-0.19984 0.09974,-0.28164 0.02358,-0.0818 0.05186,-0.21436 0.06253,-0.29456 0.0107,-0.0802 0.01663,-0.18184 0.01343,-0.22634 -0.0053,-0.073 -0.185023,-0.37462 -1.873787,-3.14296 l -1.868103,-3.06234 v -1.62678 -1.62729 l 0.09353,-0.0346 c 0.05161,-0.0192 0.12208,-0.0527 0.15658,-0.0744 0.03451,-0.0216 0.09142,-0.0648 0.126607,-0.0956 0.03519,-0.0308 0.0937,-0.10149 0.129708,-0.15709 0.03601,-0.0556 0.08059,-0.15054 0.09922,-0.21084 0.02133,-0.0691 0.03411,-0.1577 0.03411,-0.2403 0,-0.0721 -0.01192,-0.17663 -0.02636,-0.23203 -0.01443,-0.0554 -0.05046,-0.14323 -0.0801,-0.19533 -0.02964,-0.0521 -0.09329,-0.13345 -0.141077,-0.18035 -0.04779,-0.0469 -0.134156,-0.1107 -0.192236,-0.1416 -0.05809,-0.0309 -0.157655,-0.0671 -0.221175,-0.0806 -0.09403,-0.0198 -0.340385,-0.0246 -1.326534,-0.0248 l -1.211296,-5.1e-4 -0.03101,-0.10646 c -0.01709,-0.0586 -0.05884,-0.15656 -0.0925,-0.21756 -0.03456,-0.0626 -0.114077,-0.16297 -0.182417,-0.23047 -0.07816,-0.0771 -0.160621,-0.13865 -0.233061,-0.17415 -0.06167,-0.0302 -0.160975,-0.0678 -0.221175,-0.0832 -0.06086,-0.0156 -0.118051,-0.0224 -0.198955,-0.0222 z m -2.108398,8.13335 h 6.179985 c 0.78575,1.3195 1.602869,2.71787 2.264461,3.81372 0.04613,0.88965 -0.771959,1.36777 -1.637626,1.44488 -2.413568,0.0233 -4.749172,0.005 -7.162871,-0.003 -0.992893,0.0957 -1.960626,-0.45703 -1.923396,-1.47019 0.682126,-1.07574 1.497332,-2.47042 2.279447,-3.7853 z" />
    <circle
       style="fill:#ffffff;fill-opacity:1;stroke:none;stroke-width:1;stroke-linecap:round;stroke-linejoin:round;stroke-miterlimit:4;stroke-dasharray:none;stroke-opacity:1;paint-order:stroke markers fill"
       id="path20707"
       cx="-16.545832"
       cy="142.91409"
       r="0.69416291" />
    <circle
       style="fill:#ffffff;fill-opacity:1;stroke:none;stroke-width:1;stroke-linecap:round;stroke-linejoin:round;stroke-miterlimit:4;stroke-dasharray:none;stroke-opacity:1;paint-order:stroke markers fill"
       id="circle20831"
       cx="-17.737366"
       cy="144.53769"
       r="0.69416291" />
    <circle
       style="fill:#000000;fill-opacity:1;stroke:none;stroke-width:1;stroke-linecap:round;stroke-linejoin:round;stroke-miterlimit:4;stroke-dasharray:none;stroke-opacity:1;paint-order:stroke markers fill"
       id="circle20833"
       cx="-15.935535"
       cy="147.07544"
       r="0.69416291" />
    <path
       id="circle831"
       style="fill:#ffffff;fill-opacity:1;stroke:none;stroke-width:3.77953;stroke-linecap:round;stroke-linejoin:round;stroke-miterlimit:4;stroke-dasharray:none;stroke-opacity:1;paint-order:stroke markers fill"
       d="M 42.669922 50.09375 A 2.6236078 2.6236078 0 0 0 40.046875 52.716797 A 2.6236078 2.6236078 0 0 0 40.113281 53.300781 L 45.228516 53.300781 A 2.6236078 2.6236078 0 0 0 45.292969 52.716797 A 2.6236078 2.6236078 0 0 0 42.669922 50.09375 z "
       transform="matrix(0.26458333,0,0,0.26458333,-27.225363,133.12747)" />
  </g>
</svg>
