<?xml version="1.0" encoding="UTF-8" standalone="no"?>
<!-- Created with Inkscape (http://www.inkscape.org/) -->

<svg
   width="20mm"
   height="20mm"
   viewBox="0 0 20 20"
   version="1.1"
   id="svg2597"
   inkscape:version="1.1.2 (0a00cf5339, 2022-02-04)"
   sodipodi:docname="level3.svg"
   xmlns:inkscape="http://www.inkscape.org/namespaces/inkscape"
   xmlns:sodipodi="http://sodipodi.sourceforge.net/DTD/sodipodi-0.dtd"
   xmlns="http://www.w3.org/2000/svg"
   xmlns:svg="http://www.w3.org/2000/svg">
  <sodipodi:namedview
     id="namedview2599"
     pagecolor="#ffffff"
     bordercolor="#666666"
     borderopacity="1.0"
     inkscape:pageshadow="2"
     inkscape:pageopacity="0.0"
     inkscape:pagecheckerboard="0"
     inkscape:document-units="mm"
     showgrid="false"
     fit-margin-top="0"
     fit-margin-left="0"
     fit-margin-right="0"
     fit-margin-bottom="0"
     inkscape:zoom="8.1437114"
     inkscape:cx="52.064713"
     inkscape:cy="47.337139"
     inkscape:window-width="1877"
     inkscape:window-height="1060"
     inkscape:window-x="1959"
     inkscape:window-y="1095"
     inkscape:window-maximized="0"
     inkscape:current-layer="layer1" />
  <defs
     id="defs2594">
    <clipPath
       clipPathUnits="userSpaceOnUse"
       id="clipPath2047">
      <rect
         style="opacity:1;fill:#ff00ff;fill-opacity:1;stroke:none;stroke-width:1.5;stroke-miterlimit:4.7;stroke-dasharray:none;stroke-opacity:0.959286"
         id="rect2049"
         width="26.714878"
         height="26.175507"
         x="-7.3449249"
         y="-12.325286"
         transform="rotate(-14.196402)" />
    </clipPath>
    <clipPath
       clipPathUnits="userSpaceOnUse"
       id="clipPath2410">
      <path
         id="path2412"
         style="display:block;opacity:1;fill:#ff0000;fill-opacity:1;stroke:none;stroke-width:1.5;stroke-miterlimit:4.7;stroke-dasharray:none;stroke-opacity:0.959286"
         d="M 14.746932,-0.56718863 10.848978,11.525613 -2.9072885,15.031342 1.1090045,30.787487 22.585213,25.313402 23.402734,25.576952 30.222473,4.4211375 Z" />
    </clipPath>
    <inkscape:path-effect
       effect="powerclip"
       id="path-effect2414"
       is_visible="true"
       lpeversion="1"
       inverse="true"
       flatten="false"
       hide_clip="false"
       message="Use fill-rule evenodd on &lt;b&gt;fill and stroke&lt;/b&gt; dialog if no flatten result after convert clip to paths." />
  </defs>
  <g
     inkscape:label="Layer 1"
     inkscape:groupmode="layer"
     id="layer1"
     transform="translate(27.225363,-133.12747)">
    <path
       style="fill:#ffffff;stroke-width:1;stroke-linecap:round;stroke-linejoin:round;paint-order:stroke markers fill"
       d="m -18.991244,142.48807 c -0.01339,0.88078 0.03221,1.76471 -0.03927,2.64273 -1.072454,1.69129 -2.484441,4.19466 -3.556889,5.88595 -0.03723,1.01316 0.930502,1.56589 1.923397,1.47019 2.413698,0.008 4.749302,0.0264 7.162869,0.003 0.865669,-0.0771 1.683758,-0.55522 1.637627,-1.44487 -1.042654,-1.72704 -2.48122,-4.22965 -3.553788,-5.93866 v -2.61431 z"
       id="path23336" />
    <path
       id="path19508"
       style="fill:#000000;stroke-width:0.0644795"
       d="M 43.107422 17.28125 C 42.979901 17.280721 42.851699 17.291903 42.701172 17.318359 C 42.475345 17.357289 42.137439 17.459568 41.949219 17.546875 C 41.760998 17.634182 41.475978 17.823931 41.316406 17.966797 C 41.156835 18.109663 40.930976 18.384235 40.814453 18.578125 C 40.684551 18.794314 40.563862 19.122285 40.501953 19.425781 C 40.421714 19.819797 40.414136 19.99987 40.46875 20.310547 C 40.506545 20.525224 40.609845 20.857962 40.697266 21.048828 C 40.784686 21.239694 40.994377 21.543192 41.164062 21.724609 C 41.333763 21.906027 41.598731 22.128797 41.751953 22.21875 C 41.905175 22.308703 42.153292 22.421947 42.302734 22.470703 C 42.475875 22.527018 42.797814 22.552354 43.191406 22.541016 C 43.736841 22.525898 43.857782 22.500911 44.228516 22.318359 C 44.489983 22.189477 44.774948 21.977415 44.984375 21.755859 C 45.169307 21.560458 45.393452 21.241143 45.482422 21.046875 C 45.571392 20.852607 45.673835 20.510038 45.708984 20.285156 C 45.758269 19.968432 45.750364 19.767383 45.673828 19.400391 C 45.615964 19.122973 45.486607 18.7814 45.363281 18.576172 C 45.247363 18.383038 45.02286 18.109663 44.863281 17.966797 C 44.70371 17.823931 44.420882 17.636085 44.236328 17.550781 C 44.051774 17.464986 43.722918 17.362707 43.505859 17.322266 C 43.361179 17.295809 43.234943 17.281628 43.107422 17.28125 z M 34.113281 22.566406 C 34.011347 22.566595 33.899107 22.568613 33.773438 22.576172 C 33.285278 22.598849 32.987611 22.648457 32.708984 22.753906 C 32.496197 22.83441 32.127942 23.027537 31.890625 23.183594 C 31.653346 23.339688 31.324856 23.615873 31.162109 23.796875 C 30.999363 23.977914 30.768929 24.302964 30.648438 24.519531 C 30.527946 24.736098 30.375139 25.094926 30.310547 25.316406 L 30.193359 25.71875 L 29.576172 25.71875 C 29.236921 25.71875 28.788569 25.749 28.578125 25.789062 C 28.367681 25.827236 27.985183 25.959575 27.728516 26.082031 C 27.446714 26.216582 27.124936 26.437324 26.917969 26.640625 C 26.729446 26.825822 26.483686 27.139843 26.371094 27.337891 C 26.258464 27.535938 26.118449 27.881406 26.060547 28.107422 C 25.986015 28.398445 25.965541 28.688611 25.986328 29.101562 C 26.005982 29.492781 26.062796 29.808452 26.160156 30.060547 C 26.23998 30.267287 26.44056 30.613133 26.605469 30.830078 C 26.7743 31.052314 27.080852 31.346173 27.306641 31.5 C 27.527214 31.650047 27.881823 31.836355 28.095703 31.914062 L 28.484375 32.056641 L 28.482422 37.609375 C 28.480124 41.740021 28.458242 43.326981 28.396484 43.806641 L 28.3125 44.451172 L 21.273438 55.982422 L 14.234375 67.515625 L 14.234375 67.919922 C 14.234375 68.142158 14.279635 68.58165 14.333984 68.896484 C 14.388334 69.211319 14.503595 69.700532 14.589844 69.984375 C 14.676055 70.268218 14.861555 70.737832 15.001953 71.027344 C 15.142363 71.316856 15.389459 71.755969 15.552734 72.003906 C 15.71601 72.251843 16.007736 72.632664 16.201172 72.849609 C 16.394608 73.066554 16.734757 73.40509 16.957031 73.603516 C 17.179305 73.801941 17.48613 74.051179 17.638672 74.15625 C 17.791214 74.261699 18.096551 74.44957 18.316406 74.574219 C 18.536261 74.698943 18.948731 74.898119 19.232422 75.015625 C 19.516151 75.133546 19.98743 75.2904 20.28125 75.365234 C 20.57507 75.440069 21.025414 75.526782 21.28125 75.556641 C 21.537086 75.583097 28.972265 75.613408 37.802734 75.617188 C 48.020014 75.620967 54.059996 75.602185 54.414062 75.5625 C 54.720091 75.528484 55.257362 75.423937 55.607422 75.333984 C 55.988678 75.236095 56.554479 75.02027 57.019531 74.792969 C 57.446531 74.584339 58.026301 74.241014 58.308594 74.03125 C 58.590887 73.821486 59.083163 73.372605 59.402344 73.033203 C 59.721525 72.693802 60.138695 72.166777 60.328125 71.863281 C 60.517593 71.559785 60.76973 71.084877 60.888672 70.808594 C 61.007614 70.53231 61.176466 70.053306 61.265625 69.744141 C 61.354746 69.434975 61.461626 68.933977 61.501953 68.630859 C 61.542394 68.327741 61.564867 67.94358 61.552734 67.775391 C 61.532703 67.499485 60.853433 66.359502 54.470703 55.896484 L 47.410156 44.322266 L 47.410156 38.173828 L 47.410156 32.023438 L 47.763672 31.892578 C 47.958733 31.820011 48.225075 31.693344 48.355469 31.611328 C 48.4859 31.52969 48.700994 31.366409 48.833984 31.25 C 48.966986 31.133591 49.188126 30.866392 49.324219 30.65625 C 49.46032 30.446108 49.628806 30.087281 49.699219 29.859375 C 49.779836 29.59821 49.828125 29.263361 49.828125 28.951172 C 49.828125 28.678668 49.783092 28.283605 49.728516 28.074219 C 49.673977 27.864833 49.537806 27.532851 49.425781 27.335938 C 49.313756 27.139024 49.073187 26.831557 48.892578 26.654297 C 48.711955 26.477037 48.385531 26.235928 48.166016 26.119141 C 47.946463 26.002353 47.570154 25.865477 47.330078 25.814453 C 46.974689 25.739618 46.043587 25.721837 42.316406 25.720703 L 37.738281 25.71875 L 37.621094 25.316406 C 37.556502 25.094926 37.398703 24.724692 37.271484 24.494141 C 37.140864 24.257542 36.840324 23.878165 36.582031 23.623047 C 36.286623 23.331645 35.974961 23.099017 35.701172 22.964844 C 35.468088 22.850702 35.092766 22.708595 34.865234 22.650391 C 34.635212 22.59143 34.419056 22.56565 34.113281 22.566406 z M 31.121094 35.378906 L 44.628906 35.392578 L 44.628906 45.273438 C 48.682714 51.732688 54.119811 61.191355 58.060547 67.71875 C 58.234896 71.081207 55.142906 72.888286 51.871094 73.179688 C 42.748947 73.26775 33.92147 73.200158 24.798828 73.169922 C 21.046162 73.531623 17.388585 71.442547 17.529297 67.613281 C 21.582644 61.221004 26.919294 51.759465 30.972656 45.367188 C 31.242817 42.048687 31.070524 38.707876 31.121094 35.378906 z "
       transform="matrix(0.26458333,0,0,0.26458333,-27.225363,133.12747)" />
    <circle
       style="fill:#000000;fill-opacity:1;stroke:none;stroke-width:1;stroke-linecap:round;stroke-linejoin:round;stroke-miterlimit:4;stroke-dasharray:none;stroke-opacity:1;paint-order:stroke markers fill"
       id="path20707"
       cx="-16.545832"
       cy="142.91559"
       r="0.69416291" />
    <circle
       style="fill:#000000;fill-opacity:1;stroke:none;stroke-width:1;stroke-linecap:round;stroke-linejoin:round;stroke-miterlimit:4;stroke-dasharray:none;stroke-opacity:1;paint-order:stroke markers fill"
       id="circle20831"
       cx="-17.737366"
       cy="144.53918"
       r="0.69416291" />
  </g>
</svg>
