<?xml version="1.0" encoding="UTF-8" standalone="no"?>
<!-- Created with Inkscape (http://www.inkscape.org/) -->

<svg
   width="20mm"
   height="20mm"
   viewBox="0 0 20 20"
   version="1.1"
   id="svg2597"
   inkscape:version="1.1.2 (0a00cf5339, 2022-02-04)"
   sodipodi:docname="indirect.svg"
   xmlns:inkscape="http://www.inkscape.org/namespaces/inkscape"
   xmlns:sodipodi="http://sodipodi.sourceforge.net/DTD/sodipodi-0.dtd"
   xmlns="http://www.w3.org/2000/svg"
   xmlns:svg="http://www.w3.org/2000/svg">
  <sodipodi:namedview
     id="namedview2599"
     pagecolor="#ffffff"
     bordercolor="#666666"
     borderopacity="1.0"
     inkscape:pageshadow="2"
     inkscape:pageopacity="0.0"
     inkscape:pagecheckerboard="0"
     inkscape:document-units="mm"
     showgrid="false"
     fit-margin-top="0"
     fit-margin-left="0"
     fit-margin-right="0"
     fit-margin-bottom="0"
     inkscape:zoom="5.7584736"
     inkscape:cx="28.827084"
     inkscape:cy="38.465054"
     inkscape:window-width="1093"
     inkscape:window-height="1060"
     inkscape:window-x="2899"
     inkscape:window-y="1095"
     inkscape:window-maximized="0"
     inkscape:current-layer="layer1"
     inkscape:snap-page="true" />
  <defs
     id="defs2594">
    <marker
       style="overflow:visible"
       id="DotL"
       refX="0.0"
       refY="0.0"
       orient="auto"
       inkscape:stockid="DotL"
       inkscape:isstock="true">
      <path
         transform="scale(0.8) translate(7.4, 1)"
         style="fill-rule:evenodd;fill:context-stroke;stroke:context-stroke;stroke-width:1.0pt"
         d="M -2.5,-1.0 C -2.5,1.7600000 -4.7400000,4.0 -7.5,4.0 C -10.260000,4.0 -12.5,1.7600000 -12.5,-1.0 C -12.5,-3.7600000 -10.260000,-6.0 -7.5,-6.0 C -4.7400000,-6.0 -2.5,-3.7600000 -2.5,-1.0 z "
         id="path2113" />
    </marker>
  </defs>
  <g
     inkscape:label="Layer 1"
     inkscape:groupmode="layer"
     id="layer1"
     transform="translate(21.560755,-106.81312)">
    <path
       id="rect5931"
       style="fill:#666666;fill-opacity:1;stroke:none;stroke-width:3.77953;stroke-linecap:round;stroke-linejoin:round;stroke-miterlimit:4;stroke-dasharray:none;stroke-opacity:1;paint-order:stroke markers fill"
       d="m 20.726562,22.175781 -1.630145,27.695484 c -2.950922,0.26807 -4.585243,1.270047 -8.180401,2.870923 l -2.1541052,22.848364 60.3491622,0 -2.081776,-43.272193 c -4.562825,0.49589 -7.015981,0.916167 -9.933964,2.496249 L 55.900391,22.175781 Z"
       transform="matrix(0.26458333,0,0,0.26458333,-21.560755,106.81312)"
       sodipodi:nodetypes="ccccccccc" />
    <path
       style="fill:#ffffff;stroke:#000000;stroke-width:1;stroke-linecap:round;stroke-linejoin:round;stroke-miterlimit:4;stroke-dasharray:none;stroke-opacity:1;paint-order:markers fill stroke"
       d="m -3.8256666,115.36386 c -6.4548724,0.70152 -6.008637,6.5418 -6.008637,6.5418 0,0 5.818,-0.0237 6.008637,-6.5418"
       id="path1206"
       sodipodi:nodetypes="ccc" />
    <path
       style="fill:#ffffff;stroke:#000000;stroke-width:1;stroke-linecap:round;stroke-linejoin:round;stroke-miterlimit:4;stroke-dasharray:none;stroke-opacity:1;paint-order:markers fill stroke"
       d="m -8.6246676,126.43547 h -1.6734434 c 0,0 0.5435654,-2.13748 0.07728,-3.86416 -0.466281,-1.72668 -1.26326,-3.08715 -1.26326,-3.08715 0,0 1.6719884,1.93325 2.1974054,3.73148 0.525417,1.79822 0.662014,3.21983 0.662014,3.21983 z"
       id="path1513"
       sodipodi:nodetypes="ccscsc" />
    <path
       style="fill:#ffffff;stroke:#000000;stroke-width:1;stroke-linecap:round;stroke-linejoin:round;stroke-miterlimit:4;stroke-dasharray:none;stroke-opacity:1;paint-order:markers fill stroke"
       d="m -18.672681,120.76791 c 5.931417,-2.64118 8.484012,2.63065 8.484012,2.63065 0,0 -5.04,2.90656 -8.484012,-2.63065"
       id="path1379"
       sodipodi:nodetypes="ccc" />
    <rect
       style="fill:#000000;fill-opacity:0.999759;stroke:none;stroke-width:0.964043;stroke-linecap:round;stroke-linejoin:round;stroke-miterlimit:4;stroke-dasharray:none;stroke-opacity:1;paint-order:stroke markers fill"
       id="rect6184"
       width="10.152909"
       height="3.1726542"
       x="-16.539621"
       y="109.50768" />
  </g>
</svg>
