<?xml version="1.0" encoding="UTF-8" standalone="no"?>
<!-- Created with Inkscape (http://www.inkscape.org/) -->

<svg
   width="20mm"
   height="20mm"
   viewBox="0 0 20 20"
   version="1.1"
   id="svg2597"
   inkscape:version="1.1.2 (0a00cf5339, 2022-02-04)"
   sodipodi:docname="moderate.svg"
   xmlns:inkscape="http://www.inkscape.org/namespaces/inkscape"
   xmlns:sodipodi="http://sodipodi.sourceforge.net/DTD/sodipodi-0.dtd"
   xmlns="http://www.w3.org/2000/svg"
   xmlns:svg="http://www.w3.org/2000/svg">
  <sodipodi:namedview
     id="namedview2599"
     pagecolor="#ffffff"
     bordercolor="#666666"
     borderopacity="1.0"
     inkscape:pageshadow="2"
     inkscape:pageopacity="0.0"
     inkscape:pagecheckerboard="0"
     inkscape:document-units="mm"
     showgrid="false"
     fit-margin-top="0"
     fit-margin-left="0"
     fit-margin-right="0"
     fit-margin-bottom="0"
     inkscape:zoom="8.1437115"
     inkscape:cx="17.682355"
     inkscape:cy="76.377952"
     inkscape:window-width="1877"
     inkscape:window-height="2125"
     inkscape:window-x="1959"
     inkscape:window-y="31"
     inkscape:window-maximized="0"
     inkscape:current-layer="layer1" />
  <defs
     id="defs2594">
    <clipPath
       clipPathUnits="userSpaceOnUse"
       id="clipPath2047">
      <rect
         style="opacity:1;fill:#ff00ff;fill-opacity:1;stroke:none;stroke-width:1.5;stroke-miterlimit:4.7;stroke-dasharray:none;stroke-opacity:0.959286"
         id="rect2049"
         width="26.714878"
         height="26.175507"
         x="-7.3449249"
         y="-12.325286"
         transform="rotate(-14.196402)" />
    </clipPath>
    <clipPath
       clipPathUnits="userSpaceOnUse"
       id="clipPath2410">
      <path
         id="path2412"
         style="display:block;opacity:1;fill:#ff0000;fill-opacity:1;stroke:none;stroke-width:1.5;stroke-miterlimit:4.7;stroke-dasharray:none;stroke-opacity:0.959286"
         d="M 14.746932,-0.56718863 10.848978,11.525613 -2.9072885,15.031342 1.1090045,30.787487 22.585213,25.313402 23.402734,25.576952 30.222473,4.4211375 Z" />
    </clipPath>
    <inkscape:path-effect
       effect="powerclip"
       id="path-effect2414"
       is_visible="true"
       lpeversion="1"
       inverse="true"
       flatten="false"
       hide_clip="false"
       message="Use fill-rule evenodd on &lt;b&gt;fill and stroke&lt;/b&gt; dialog if no flatten result after convert clip to paths." />
  </defs>
  <g
     inkscape:label="Layer 1"
     inkscape:groupmode="layer"
     id="layer1"
     transform="translate(27.225363,-133.12747)">
    <path
       style="fill:#000000;stroke-width:0.299715;stroke-miterlimit:4;stroke-dasharray:none"
       d="m -23.876754,140.70301 v -0.36706 h 1.066702 c 0.94533,0 1.081069,0.0121 1.19296,0.10217 0.153367,0.12419 0.165344,0.36655 0.02574,0.52081 -0.09336,0.10314 -0.178371,0.11103 -1.19296,0.11103 h -1.092442 z"
       id="path3180" />
    <path
       style="fill:#000000;stroke-width:0.327583;stroke-miterlimit:4;stroke-dasharray:none"
       d="m -23.84905,145.9236 v -0.40293 l 0.846414,0.0172 c 0.836938,0.0171 0.847409,0.019 0.935323,0.17577 0.117532,0.2096 0.052,0.44973 -0.147519,0.54065 -0.093,0.0423 -0.464088,0.0723 -0.896453,0.0723 h -0.737759 z"
       id="path3174" />
    <path
       id="rect3831"
       style="fill:#000000;stroke-width:0.824056;stroke-linecap:round;stroke-linejoin:round;paint-order:stroke markers fill"
       d="m -26.995993,144.2056 v 3.44952 l 2.539897,-1.72476 z" />
    <path
       id="path11086"
       style="fill:#ffffff;fill-opacity:1;stroke:#000000;stroke-width:0.580896;stroke-linecap:round;stroke-linejoin:round;stroke-miterlimit:4;stroke-dasharray:none;stroke-opacity:1;paint-order:stroke markers fill"
       d="m -22.972714,135.09493 c -0.428039,1.60977 -0.829476,2.33015 -0.986397,2.6853 -0.105967,0.23983 -0.189749,0.4029 -0.192983,0.55466 -0.01412,0.66402 0.514289,1.2131 1.178323,1.22642 0.664034,0.0132 1.213136,-0.51429 1.226417,-1.17833 0.0032,-0.16117 -0.04967,-0.31242 -0.150249,-0.53248 -0.131068,-0.28678 -0.677547,-1.14035 -1.075113,-2.75557 z"
       sodipodi:nodetypes="csscssc" />
    <path
       style="fill:none;stroke:#000000;stroke-width:0.7;stroke-linecap:butt;stroke-linejoin:miter;stroke-miterlimit:4;stroke-dasharray:none;stroke-opacity:1"
       d="m -23.526127,140.703 0.0233,10.44709"
       id="path4549"
       sodipodi:nodetypes="cc" />
    <path
       style="fill:#000000;stroke-width:0.299715;stroke-miterlimit:4;stroke-dasharray:none"
       d="m -23.854343,151.18032 v -0.36706 h 1.066702 c 0.94533,0 1.081069,0.0121 1.19296,0.10217 0.153367,0.12419 0.165344,0.36655 0.02574,0.52081 -0.09336,0.10314 -0.178371,0.11103 -1.19296,0.11103 h -1.092442 z"
       id="path4924" />
  </g>
</svg>
