<?xml version="1.0" encoding="UTF-8" standalone="no"?>
<!-- Created with Inkscape (http://www.inkscape.org/) -->

<svg
   width="20mm"
   height="20mm"
   viewBox="0 0 20 20"
   version="1.1"
   id="svg2597"
   inkscape:version="1.1.2 (0a00cf5339, 2022-02-04)"
   sodipodi:docname="bright.svg"
   xmlns:inkscape="http://www.inkscape.org/namespaces/inkscape"
   xmlns:sodipodi="http://sodipodi.sourceforge.net/DTD/sodipodi-0.dtd"
   xmlns="http://www.w3.org/2000/svg"
   xmlns:svg="http://www.w3.org/2000/svg">
  <sodipodi:namedview
     id="namedview2599"
     pagecolor="#ffffff"
     bordercolor="#666666"
     borderopacity="1.0"
     inkscape:pageshadow="2"
     inkscape:pageopacity="0.0"
     inkscape:pagecheckerboard="0"
     inkscape:document-units="mm"
     showgrid="false"
     fit-margin-top="0"
     fit-margin-left="0"
     fit-margin-right="0"
     fit-margin-bottom="0"
     inkscape:zoom="0.7198092"
     inkscape:cx="283.40844"
     inkscape:cy="300.77415"
     inkscape:window-width="1877"
     inkscape:window-height="1060"
     inkscape:window-x="78"
     inkscape:window-y="1095"
     inkscape:window-maximized="0"
     inkscape:current-layer="layer1" />
  <defs
     id="defs2594" />
  <g
     inkscape:label="Layer 1"
     inkscape:groupmode="layer"
     id="layer1"
     transform="translate(87.925743,-68.660889)">
    <g
       id="g1799"
       transform="translate(-87.925743,68.660891)"
       style="stroke-width:1;stroke-miterlimit:4;stroke-dasharray:none">
      <path
         sodipodi:type="star"
         style="opacity:1;fill:#ffffff;fill-opacity:1;stroke:#000000;stroke-width:4.08052092;stroke-miterlimit:4;stroke-dasharray:none;stroke-opacity:0.959286"
         id="path31"
         inkscape:flatsided="false"
         sodipodi:sides="6"
         sodipodi:cx="11.900706"
         sodipodi:cy="15.840226"
         sodipodi:r1="37.002388"
         sodipodi:r2="15.956849"
         sodipodi:arg1="0.81678248"
         sodipodi:arg2="1.3200695"
         inkscape:rounded="0.41"
         inkscape:randomized="0"
         transform="matrix(0.24503858,-0.00371569,0.00371569,0.24503858,7.0003568,6.2143631)"
         inkscape:transform-center-x="0.11313566"
         inkscape:transform-center-y="-0.32996278"
         d="M 37.231437,42.813005 C 30.11594,49.772753 25.549998,29.02502 15.85973,31.298142 5.9742486,33.617057 10.98512,54.000035 1.2069593,51.263672 -8.3781069,48.581344 7.3069857,34.253257 0.49327042,26.997799 -6.4577094,19.596178 -21.604451,34.12721 -24.123771,24.290892 -26.59334,14.648818 -6.3423062,21.068463 -3.4657535,11.539884 -0.53125168,1.819348 -20.688865,-4.0325995 -13.430024,-11.132553 -6.3145272,-18.0923 -1.7485855,2.6554322 7.9416824,0.38231031 17.827164,-1.9366043 12.816293,-22.319583 22.594453,-19.583219 c 9.585067,2.682327 -6.100026,17.0104147 0.713689,24.265872 6.95098,7.401621 22.097722,-7.1294105 24.617041,2.7069069 2.46957,9.6420741 -17.781464,3.2224301 -20.658017,12.7510091 -2.934502,9.720535 17.223111,15.572483 9.964271,22.672436 z" />
      <circle
         style="opacity:1;fill:#ffffff;fill-opacity:1;stroke:#000000;stroke-width:1;stroke-miterlimit:4;stroke-dasharray:none;stroke-opacity:0.959286"
         id="path305"
         cx="10.102028"
         cy="10.228259"
         r="4.2443881" />
    </g>
  </g>
</svg>
