<?xml version="1.0" encoding="UTF-8" standalone="no"?>
<!-- Created with Inkscape (http://www.inkscape.org/) -->

<svg
   width="20mm"
   height="20mm"
   viewBox="0 0 20 20"
   version="1.1"
   id="svg2597"
   inkscape:version="1.1.2 (0a00cf5339, 2022-02-04)"
   sodipodi:docname="low.svg"
   xmlns:inkscape="http://www.inkscape.org/namespaces/inkscape"
   xmlns:sodipodi="http://sodipodi.sourceforge.net/DTD/sodipodi-0.dtd"
   xmlns="http://www.w3.org/2000/svg"
   xmlns:svg="http://www.w3.org/2000/svg">
  <sodipodi:namedview
     id="namedview2599"
     pagecolor="#ffffff"
     bordercolor="#666666"
     borderopacity="1.0"
     inkscape:pageshadow="2"
     inkscape:pageopacity="0.0"
     inkscape:pagecheckerboard="0"
     inkscape:document-units="mm"
     showgrid="false"
     fit-margin-top="0"
     fit-margin-left="0"
     fit-margin-right="0"
     fit-margin-bottom="0"
     inkscape:zoom="1.4396184"
     inkscape:cx="28.479769"
     inkscape:cy="-95.511422"
     inkscape:window-width="1093"
     inkscape:window-height="1060"
     inkscape:window-x="1018"
     inkscape:window-y="1095"
     inkscape:window-maximized="0"
     inkscape:current-layer="layer1" />
  <defs
     id="defs2594">
    <clipPath
       clipPathUnits="userSpaceOnUse"
       id="clipPath2047">
      <rect
         style="opacity:1;fill:#ff00ff;fill-opacity:1;stroke:none;stroke-width:1.5;stroke-miterlimit:4.7;stroke-dasharray:none;stroke-opacity:0.959286"
         id="rect2049"
         width="26.714878"
         height="26.175507"
         x="-7.3449249"
         y="-12.325286"
         transform="rotate(-14.196402)" />
    </clipPath>
    <inkscape:path-effect
       effect="powerclip"
       id="path-effect2414"
       is_visible="true"
       lpeversion="1"
       inverse="true"
       flatten="false"
       hide_clip="false"
       message="Use fill-rule evenodd on &lt;b&gt;fill and stroke&lt;/b&gt; dialog if no flatten result after convert clip to paths." />
  </defs>
  <g
     inkscape:label="Layer 1"
     inkscape:groupmode="layer"
     id="layer1"
     transform="translate(139.62759,-113.72154)">
    <path
       id="path832"
       style="opacity:1;fill:#ffffff;fill-opacity:1;stroke:#000000;stroke-width:3.77952761;stroke-miterlimit:4.69999981;stroke-dasharray:none;stroke-opacity:0.959286"
       inkscape:transform-center-x="0.11313566"
       inkscape:transform-center-y="-0.32996278"
       d="M 45.78125 4.796875 C 38.795681 4.8964462 42.591571 21.559584 34.039062 23.703125 C 25.096537 25.944417 20.57612 6.7942858 14.083984 13.339844 C 7.4610622 20.017264 26.212079 25.153575 23.630859 34.197266 C 21.100613 43.062366 2.2551828 37.401741 4.6777344 46.296875 C 6.9863121 54.773519 19.199654 43.40743 26.130859 47.380859 L 41.224609 43.535156 L 47.048828 25.466797 C 44.374107 18.442548 55.417041 7.1397458 47.328125 5.0078125 C 46.759733 4.8580057 46.246955 4.7902369 45.78125 4.796875 z "
       transform="matrix(0.26458333,0,0,0.26458333,-139.62759,113.72154)" />
    <path
       id="circle834"
       style="fill:#ffffff;fill-opacity:1;stroke:#000000;stroke-width:3.77952761;stroke-miterlimit:4.69999981;stroke-dasharray:none;stroke-opacity:0.959286"
       d="M 38.400391 22.589844 A 16.041782 16.041782 0 0 0 22.359375 38.630859 A 16.041782 16.041782 0 0 0 25.150391 47.630859 L 41.224609 43.535156 L 47.140625 25.183594 A 16.041782 16.041782 0 0 0 38.400391 22.589844 z "
       transform="matrix(0.26458333,0,0,0.26458333,-139.62759,113.72154)" />
  </g>
</svg>
