<?xml version="1.0" encoding="UTF-8" standalone="no"?>
<!-- Created with Inkscape (http://www.inkscape.org/) -->

<svg
   width="20mm"
   height="20mm"
   viewBox="0 0 20 20"
   version="1.1"
   id="svg2597"
   inkscape:version="1.1.2 (0a00cf5339, 2022-02-04)"
   sodipodi:docname="ph.svg"
   xmlns:inkscape="http://www.inkscape.org/namespaces/inkscape"
   xmlns:sodipodi="http://sodipodi.sourceforge.net/DTD/sodipodi-0.dtd"
   xmlns="http://www.w3.org/2000/svg"
   xmlns:svg="http://www.w3.org/2000/svg">
  <sodipodi:namedview
     id="namedview2599"
     pagecolor="#ffffff"
     bordercolor="#666666"
     borderopacity="1.0"
     inkscape:pageshadow="2"
     inkscape:pageopacity="0.0"
     inkscape:pagecheckerboard="0"
     inkscape:document-units="mm"
     showgrid="false"
     fit-margin-top="0"
     fit-margin-left="0"
     fit-margin-right="0"
     fit-margin-bottom="0"
     inkscape:zoom="8.1437115"
     inkscape:cx="42.241182"
     inkscape:cy="56.792287"
     inkscape:window-width="1877"
     inkscape:window-height="1060"
     inkscape:window-x="1959"
     inkscape:window-y="1095"
     inkscape:window-maximized="0"
     inkscape:current-layer="layer1" />
  <defs
     id="defs2594">
    <clipPath
       clipPathUnits="userSpaceOnUse"
       id="clipPath2047">
      <rect
         style="opacity:1;fill:#ff00ff;fill-opacity:1;stroke:none;stroke-width:1.5;stroke-miterlimit:4.7;stroke-dasharray:none;stroke-opacity:0.959286"
         id="rect2049"
         width="26.714878"
         height="26.175507"
         x="-7.3449249"
         y="-12.325286"
         transform="rotate(-14.196402)" />
    </clipPath>
    <clipPath
       clipPathUnits="userSpaceOnUse"
       id="clipPath2410">
      <path
         id="path2412"
         style="display:block;opacity:1;fill:#ff0000;fill-opacity:1;stroke:none;stroke-width:1.5;stroke-miterlimit:4.7;stroke-dasharray:none;stroke-opacity:0.959286"
         d="M 14.746932,-0.56718863 10.848978,11.525613 -2.9072885,15.031342 1.1090045,30.787487 22.585213,25.313402 23.402734,25.576952 30.222473,4.4211375 Z" />
    </clipPath>
    <inkscape:path-effect
       effect="powerclip"
       id="path-effect2414"
       is_visible="true"
       lpeversion="1"
       inverse="true"
       flatten="false"
       hide_clip="false"
       message="Use fill-rule evenodd on &lt;b&gt;fill and stroke&lt;/b&gt; dialog if no flatten result after convert clip to paths." />
  </defs>
  <g
     inkscape:label="Layer 1"
     inkscape:groupmode="layer"
     id="layer1"
     transform="translate(27.225363,-133.12747)">
    <path
       style="fill:#000000;stroke-width:0.299715;stroke-miterlimit:4;stroke-dasharray:none"
       d="m -23.876754,140.70301 v -0.36706 h 1.066702 c 0.94533,0 1.081069,0.0121 1.19296,0.10217 0.153367,0.12419 0.165344,0.36655 0.02574,0.52081 -0.09336,0.10314 -0.178371,0.11103 -1.19296,0.11103 h -1.092442 z"
       id="path3180" />
    <path
       style="fill:#000000;stroke-width:0.327583;stroke-miterlimit:4;stroke-dasharray:none"
       d="m -23.84905,145.9236 v -0.40293 l 0.846414,0.0172 c 0.836938,0.0171 0.847409,0.019 0.935323,0.17577 0.117532,0.2096 0.052,0.44973 -0.147519,0.54065 -0.093,0.0423 -0.464088,0.0723 -0.896453,0.0723 h -0.737759 z"
       id="path3174" />
    <path
       style="fill:none;stroke:#000000;stroke-width:0.7;stroke-linecap:butt;stroke-linejoin:miter;stroke-miterlimit:4;stroke-dasharray:none;stroke-opacity:1"
       d="m -23.526127,140.703 0.0233,10.44709"
       id="path4549"
       sodipodi:nodetypes="cc" />
    <path
       style="fill:#000000;stroke-width:0.299715;stroke-miterlimit:4;stroke-dasharray:none"
       d="m -23.854343,151.18032 v -0.36706 h 1.066702 c 0.94533,0 1.081069,0.0121 1.19296,0.10217 0.153367,0.12419 0.165344,0.36655 0.02574,0.52081 -0.09336,0.10314 -0.178371,0.11103 -1.19296,0.11103 h -1.092442 z"
       id="path4924" />
    <g
       aria-label="acid"
       id="text7180"
       style="font-size:3.40705px;line-height:1.25;letter-spacing:0px;word-spacing:0px;stroke-width:0.0851761">
      <path
         d="m -20.02758,141.42206 q -0.186323,0 -0.281148,0.0632 -0.09316,0.0632 -0.09316,0.18632 0,0.11312 0.07486,0.178 0.07653,0.0632 0.211277,0.0632 0.168024,0 0.282812,-0.11978 0.114788,-0.12144 0.114788,-0.30277 v -0.0682 z m 0.909988,-0.22459 v 1.06304 h -0.600559 v -0.27615 q -0.119779,0.16968 -0.269503,0.24787 -0.149724,0.0765 -0.364328,0.0765 -0.289466,0 -0.470798,-0.16803 -0.179669,-0.16968 -0.179669,-0.43919 0,-0.32772 0.224586,-0.48078 0.226249,-0.15305 0.708693,-0.15305 h 0.351019 v -0.0466 q 0,-0.1414 -0.111461,-0.20628 -0.111461,-0.0666 -0.347692,-0.0666 -0.191314,0 -0.35601,0.0383 -0.164696,0.0383 -0.306102,0.11479 v -0.45416 q 0.191314,-0.0466 0.384291,-0.0699 0.192977,-0.0249 0.385955,-0.0249 0.50407,0 0.726992,0.19963 0.224586,0.19797 0.224586,0.64547 z"
         style="font-weight:bold"
         id="path17240" />
      <path
         d="m -17.058057,140.45551 v 0.48577 q -0.121442,-0.0832 -0.244549,-0.12311 -0.121442,-0.0399 -0.252867,-0.0399 -0.24954,0 -0.389282,0.14639 -0.138078,0.14474 -0.138078,0.40592 0,0.26119 0.138078,0.40758 0.139742,0.14474 0.389282,0.14474 0.139743,0 0.264512,-0.0416 0.126434,-0.0416 0.232904,-0.12311 v 0.48743 q -0.139742,0.0516 -0.284475,0.0765 -0.14307,0.0266 -0.287803,0.0266 -0.50407,0 -0.788545,-0.25786 -0.284476,-0.25952 -0.284476,-0.72034 0,-0.46082 0.284476,-0.71867 0.284475,-0.25952 0.788545,-0.25952 0.146397,0 0.287803,0.0266 0.143069,0.025 0.284475,0.0765 z"
         style="font-weight:bold"
         id="path17242" />
      <path
         d="m -16.544005,140.39728 h 0.595568 v 1.86323 h -0.595568 z m 0,-0.72533 h 0.595568 v 0.48577 h -0.595568 z"
         style="font-weight:bold"
         id="path17244" />
      <path
         d="m -14.108496,140.67011 v -0.99816 h 0.598895 v 2.58856 h -0.598895 v -0.2695 q -0.123106,0.1647 -0.271167,0.24122 -0.14806,0.0765 -0.342701,0.0765 -0.344365,0 -0.565624,-0.27283 -0.221258,-0.2745 -0.221258,-0.70537 0,-0.43087 0.221258,-0.7037 0.221259,-0.27449 0.565624,-0.27449 0.192977,0 0.341038,0.0782 0.149724,0.0765 0.27283,0.23956 z m -0.392609,1.20611 q 0.191313,0 0.291129,-0.13974 0.10148,-0.13974 0.10148,-0.40592 0,-0.26617 -0.10148,-0.40592 -0.09982,-0.13974 -0.291129,-0.13974 -0.189651,0 -0.29113,0.13974 -0.09982,0.13975 -0.09982,0.40592 0,0.26618 0.09982,0.40592 0.101479,0.13974 0.29113,0.13974 z"
         style="font-weight:bold"
         id="path17246" />
    </g>
    <g
       aria-label="alka"
       id="text9380"
       style="font-size:3.40705px;line-height:1.25;letter-spacing:0px;word-spacing:0px;stroke-width:0.0851761">
      <path
         d="m -20.144892,150.84519 q -0.186323,0 -0.281148,0.0632 -0.09316,0.0632 -0.09316,0.18633 0,0.11312 0.07486,0.178 0.07653,0.0632 0.211277,0.0632 0.168023,0 0.282811,-0.11978 0.114789,-0.12144 0.114789,-0.30278 v -0.0682 z m 0.909989,-0.22459 v 1.06304 h -0.600559 v -0.27616 q -0.119779,0.16969 -0.269503,0.24788 -0.149724,0.0765 -0.364328,0.0765 -0.289467,0 -0.470799,-0.16802 -0.179668,-0.16969 -0.179668,-0.43919 0,-0.32773 0.224585,-0.48078 0.22625,-0.15305 0.708693,-0.15305 h 0.35102 v -0.0466 q 0,-0.14141 -0.111461,-0.20629 -0.111462,-0.0665 -0.347693,-0.0665 -0.191313,0 -0.35601,0.0383 -0.164696,0.0383 -0.306102,0.11479 v -0.45416 q 0.191314,-0.0466 0.384291,-0.0699 0.192978,-0.025 0.385955,-0.025 0.504071,0 0.726993,0.19963 0.224586,0.19797 0.224586,0.64548 z"
         style="font-weight:bold"
         id="path17249" />
      <path
         d="m -18.680925,149.09508 h 0.595568 v 2.58856 h -0.595568 z"
         style="font-weight:bold"
         id="path17251" />
      <path
         d="m -17.513079,149.09508 h 0.595569 v 1.40907 l 0.685402,-0.68374 h 0.692057 l -0.909988,0.85509 0.981523,1.00814 h -0.722002 l -0.726992,-0.7769 v 0.7769 h -0.595569 z"
         style="font-weight:bold"
         id="path17253" />
      <path
         d="m -14.412131,150.84519 q -0.186323,0 -0.281148,0.0632 -0.09316,0.0632 -0.09316,0.18633 0,0.11312 0.07486,0.178 0.07653,0.0632 0.211277,0.0632 0.168023,0 0.282812,-0.11978 0.114788,-0.12144 0.114788,-0.30278 v -0.0682 z m 0.909988,-0.22459 v 1.06304 h -0.600559 v -0.27616 q -0.119779,0.16969 -0.269503,0.24788 -0.149724,0.0765 -0.364328,0.0765 -0.289466,0 -0.470798,-0.16802 -0.179669,-0.16969 -0.179669,-0.43919 0,-0.32773 0.224586,-0.48078 0.226249,-0.15305 0.708693,-0.15305 h 0.351019 v -0.0466 q 0,-0.14141 -0.111461,-0.20629 -0.111461,-0.0665 -0.347692,-0.0665 -0.191314,0 -0.35601,0.0383 -0.164697,0.0383 -0.306102,0.11479 v -0.45416 q 0.191313,-0.0466 0.384291,-0.0699 0.192977,-0.025 0.385955,-0.025 0.50407,0 0.726992,0.19963 0.224586,0.19797 0.224586,0.64548 z"
         style="font-weight:bold"
         id="path17255" />
    </g>
    <g
       aria-label="neut"
       id="text9380-8"
       style="font-size:3.40705px;line-height:1.25;letter-spacing:0px;word-spacing:0px;stroke-width:0.0851761">
      <path
         d="m -19.904009,145.71381 v 1.13458 h -0.598896 v -0.18466 -0.68374 q 0,-0.24122 -0.01165,-0.33272 -0.01,-0.0915 -0.0366,-0.13475 -0.03494,-0.0582 -0.09483,-0.0898 -0.05989,-0.0333 -0.136415,-0.0333 -0.186323,0 -0.292794,0.14474 -0.10647,0.14307 -0.10647,0.3976 v 0.91664 h -0.595568 v -1.86323 h 0.595568 v 0.27283 q 0.134752,-0.16303 0.286139,-0.23956 0.151387,-0.0782 0.334383,-0.0782 0.322738,0 0.489098,0.19797 0.168024,0.19797 0.168024,0.5756 z"
         style="font-weight:bold"
         id="path17258" />
      <path
         d="m -17.491791,145.91178 v 0.16969 h -1.392432 q 0.02163,0.20961 0.151387,0.31442 0.129761,0.10481 0.362665,0.10481 0.187986,0 0.384291,-0.0549 0.197968,-0.0566 0.405918,-0.16969 v 0.45915 q -0.211277,0.0799 -0.422554,0.11978 -0.211277,0.0416 -0.422554,0.0416 -0.505734,0 -0.786882,-0.25619 -0.279485,-0.25786 -0.279485,-0.722 0,-0.45583 0.274494,-0.71701 0.276157,-0.26119 0.758601,-0.26119 0.43919,0 0.702038,0.26451 0.264513,0.26452 0.264513,0.70703 z m -0.612205,-0.19797 q 0,-0.16968 -0.09982,-0.27283 -0.09815,-0.1048 -0.257857,-0.1048 -0.173015,0 -0.281149,0.0981 -0.108133,0.0965 -0.134751,0.27948 z"
         style="font-weight:bold"
         id="path17260" />
      <path
         d="m -17.060919,146.12306 v -1.1379 h 0.598895 v 0.18632 q 0,0.15139 -0.0017,0.38097 -0.0017,0.22791 -0.0017,0.30443 0,0.22459 0.01164,0.32441 0.01165,0.0982 0.03993,0.14307 0.0366,0.0582 0.09483,0.0898 0.05989,0.0316 0.136415,0.0316 0.186323,0 0.292793,-0.14307 0.10647,-0.14307 0.10647,-0.3976 v -0.91997 h 0.595569 v 1.86323 h -0.595569 v -0.2695 q -0.134751,0.16303 -0.286139,0.24122 -0.149723,0.0765 -0.331056,0.0765 -0.322738,0 -0.492425,-0.19797 -0.168023,-0.19796 -0.168023,-0.5756 z"
         style="font-weight:bold"
         id="path17262" />
      <path
         d="m -13.964962,144.45613 v 0.52903 h 0.613867 v 0.42588 h -0.613867 v 0.79021 q 0,0.12976 0.05157,0.17634 0.05157,0.0449 0.204623,0.0449 h 0.306102 v 0.42588 h -0.510725 q -0.352683,0 -0.500743,-0.1464 -0.146397,-0.14806 -0.146397,-0.50074 v -0.79021 h -0.29612 v -0.42588 h 0.29612 v -0.52903 z"
         style="font-weight:bold"
         id="path17264" />
    </g>
  </g>
</svg>
