<?xml version="1.0" encoding="UTF-8" standalone="no"?>
<!-- Created with Inkscape (http://www.inkscape.org/) -->

<svg
   width="20mm"
   height="20mm"
   viewBox="0 0 20 20"
   version="1.1"
   id="svg2597"
   inkscape:version="1.1.2 (0a00cf5339, 2022-02-04)"
   sodipodi:docname="low.svg"
   xmlns:inkscape="http://www.inkscape.org/namespaces/inkscape"
   xmlns:sodipodi="http://sodipodi.sourceforge.net/DTD/sodipodi-0.dtd"
   xmlns:xlink="http://www.w3.org/1999/xlink"
   xmlns="http://www.w3.org/2000/svg"
   xmlns:svg="http://www.w3.org/2000/svg">
  <sodipodi:namedview
     id="namedview2599"
     pagecolor="#ffffff"
     bordercolor="#666666"
     borderopacity="1.0"
     inkscape:pageshadow="2"
     inkscape:pageopacity="0.0"
     inkscape:pagecheckerboard="0"
     inkscape:document-units="mm"
     showgrid="false"
     fit-margin-top="0"
     fit-margin-left="0"
     fit-margin-right="0"
     fit-margin-bottom="0"
     inkscape:zoom="8"
     inkscape:cx="44.875"
     inkscape:cy="41.0625"
     inkscape:window-width="1877"
     inkscape:window-height="1060"
     inkscape:window-x="1959"
     inkscape:window-y="1095"
     inkscape:window-maximized="0"
     inkscape:current-layer="layer1" />
  <defs
     id="defs2594" />
  <g
     inkscape:label="Layer 1"
     inkscape:groupmode="layer"
     id="layer1"
     transform="translate(87.925743,-68.660889)">
    <path
       id="path3424_17_"
       style="fill:#00ff00;stroke-width:0.159873"
       xlink:href="#path3422"
       d="m -78.05527,72.074048 c -0.30072,0.04652 -0.564989,0.223982 -0.716071,0.487294 l -8.414917,14.578499 c -0.176017,0.305996 -0.178737,0.688094 0,0.996009 0.178742,0.308875 0.511276,0.502481 0.87099,0.502162 h 16.829831 c 0.359714,3.19e-4 0.692569,-0.193287 0.871147,-0.502162 0.178418,-0.308556 0.176181,-0.690013 0,-0.996009 l -8.414755,-14.578499 c -0.207833,-0.361314 -0.61711,-0.551562 -1.026385,-0.487612 z" />
    <path
       id="path3432_17_"
       style="fill:#010101;stroke-width:0.159873"
       d="m -77.978531,72.484922 c -0.16275,0.02511 -0.3012,0.123263 -0.379698,0.259794 L -86.8315,87.422975 c -0.09272,0.161472 -0.09304,0.368827 0,0.529501 0.09464,0.163069 0.269547,0.269864 0.459637,0.269864 h 16.946539 c 0.190407,0 0.364989,-0.106795 0.459633,-0.269864 0.09337,-0.160993 0.09272,-0.368349 0,-0.529501 l -8.473267,-14.678259 c -0.108714,-0.18865 -0.319745,-0.292568 -0.540372,-0.258995 z m 0.07995,1.688259 7.194285,12.670096 h -14.398487 l 7.203878,-12.669936 z" />
    <path
       id="path2099"
       style="fill:#010101;stroke-width:0.0662325"
       d="m -78.38228,78.964249 c -0.806574,0.191742 -1.403195,0.871483 -1.403195,1.684947 0,0.340964 0.10405,0.658216 0.285461,0.927118 -0.04981,-0.0048 -0.09882,-0.0082 -0.148958,-0.0084 -0.285459,-5.91e-4 -0.571715,0.06935 -0.832007,0.219825 -0.704445,0.406534 -0.994874,1.262784 -0.757564,2.057173 0.01218,-0.0091 0.02366,-0.01689 0.03716,-0.02497 0.02583,-0.01496 0.05121,-0.02841 0.07868,-0.03715 -0.150348,-0.624835 0.09663,-1.282455 0.64987,-1.602158 0.682258,-0.39375 1.576193,-0.121139 1.995245,0.604502 0.41905,0.725971 0.206313,1.634345 -0.476011,2.028427 -0.553303,0.319438 -1.247946,0.202339 -1.713825,-0.240092 -0.02132,0.01933 -0.04451,0.03464 -0.07027,0.04981 -0.01358,0.0078 -0.02755,0.0147 -0.04146,0.02046 0.569332,0.602647 1.456447,0.779553 2.160891,0.372822 0.320431,-0.185186 0.556152,-0.462766 0.695238,-0.786575 0.139221,0.323347 0.371166,0.60172 0.691267,0.786575 0.704445,0.406532 1.59189,0.229825 2.160825,-0.372822 -0.01372,-0.0059 -0.02782,-0.01265 -0.0412,-0.02046 -0.0259,-0.01496 -0.04934,-0.03027 -0.07054,-0.04981 -0.465412,0.44263 -1.160188,0.55953 -1.713492,0.240092 -0.682257,-0.394082 -0.894929,-1.30239 -0.475878,-2.028427 0.419051,-0.725705 1.312721,-0.998252 1.99531,-0.604502 0.553305,0.319768 0.800019,0.977389 0.649341,1.602158 0.02761,0.0087 0.05325,0.02219 0.07868,0.03715 0.01371,0.0082 0.02497,0.0159 0.03762,0.02497 0.237312,-0.794389 -0.05325,-1.650574 -0.757695,-2.057173 -0.305992,-0.176708 -0.647023,-0.242012 -0.981098,-0.211413 0.181742,-0.268836 0.289767,-0.586088 0.289767,-0.927119 0,-0.813397 -0.596752,-1.493204 -1.403261,-1.684946 0.0019,0.0153 0.004,0.03 0.004,0.04557 0,0.0298 -0.0021,0.05888 -0.0084,0.08696 0.616556,0.182074 1.064152,0.723057 1.064152,1.361934 0,0.788163 -0.68133,1.428231 -1.519367,1.428231 -0.838101,0 -1.519034,-0.640135 -1.519034,-1.428231 0,-0.638877 0.447795,-1.17986 1.063887,-1.361934 -0.0061,-0.02808 -0.0083,-0.05715 -0.0083,-0.08696 -0.0013,-0.01524 6.65e-4,-0.02982 0.0027,-0.04503 z m 0.240422,3.41493 c 0.072,0.0079 0.145049,0.01252 0.219228,0.01252 0.07306,0 0.144587,-0.0048 0.215454,-0.01252 -0.03437,0.04901 -0.06868,0.100211 -0.09928,0.153328 -0.04497,0.07808 -0.08266,0.154852 -0.116173,0.235787 -0.03325,-0.08119 -0.07464,-0.157368 -0.119813,-0.235787 -0.03113,-0.05365 -0.0649,-0.103983 -0.09935,-0.152996 z" />
    <path
       id="path3020"
       style="fill:none;stroke-width:0.0662325"
       d="m -77.767645,84.797318 c -0.719348,-0.415276 -0.966196,-1.335175 -0.550655,-2.054655 0.41521,-0.719745 1.335042,-0.96646 2.054789,-0.551118 l 3.34e-4,3.35e-4 c 0.719413,0.415276 0.96613,1.335174 0.550786,2.05492 -0.415342,0.719746 -1.335173,0.966461 -2.054985,0.550853 l -6.64e-4,-6.65e-4 z" />
    <path
       id="path3028"
       style="fill:none;stroke-width:0.0662325"
       d="m -79.438683,84.797318 c 0.719612,-0.415276 0.966261,-1.335175 0.550985,-2.054655 -0.415276,-0.719745 -1.335372,-0.96646 -2.055119,-0.551118 0,0 -1.33e-4,3.35e-4 -3.35e-4,3.35e-4 -0.719679,0.415276 -0.966261,1.335174 -0.550919,2.05492 0.415276,0.719746 1.335373,0.966461 2.055052,0.550853 v -6.65e-4 z" />
    <path
       id="path2111"
       style="fill:#010101;stroke-width:0.0662325"
       d="m -77.924616,80.152455 c -0.586022,0 -1.043687,0.206115 -1.404652,0.612051 0.03981,0.154587 0.106038,0.299767 0.194523,0.430311 0.280097,-0.407195 0.679344,-0.624504 1.210129,-0.624504 0.532706,0 0.918973,0.23731 1.197347,0.64762 0.08869,-0.129882 0.154254,-0.27619 0.194524,-0.430311 -0.361628,-0.408653 -0.804723,-0.635167 -1.392202,-0.635167 z m -1.861124,1.916759 c -0.03292,0 -0.06636,0.0019 -0.09928,0.004 -0.0016,0.03312 -0.0043,0.06624 -0.0043,0.09915 0,0.94798 0.600065,1.667593 1.49155,1.856023 0.04186,-0.133986 0.06742,-0.274797 0.07041,-0.418123 -0.693981,-0.153923 -1.143962,-0.697888 -1.143962,-1.437967 0,-0.02026 0.0033,-0.04153 0.0042,-0.06179 -0.10531,-0.0245 -0.210618,-0.04107 -0.318577,-0.04171 z m 3.727548,0.02517 c -0.10743,0 -0.217309,0.01689 -0.322883,0.04119 9e-4,0.0206 0.0044,0.04153 0.0044,0.06212 0,0.738488 -0.442168,1.276028 -1.133499,1.431543 0.0031,0.142996 0.02438,0.284136 0.06624,0.417791 0.893339,-0.187371 1.489429,-0.900558 1.489429,-1.849334 0,-0.03338 -0.0027,-0.06649 -0.004,-0.09928 -0.03378,-0.0019 -0.06756,-0.0039 -0.100673,-0.0039 z" />
  </g>
</svg>
