<?xml version="1.0" encoding="UTF-8" standalone="no"?>
<!-- Created with Inkscape (http://www.inkscape.org/) -->

<svg
   width="20mm"
   height="20mm"
   viewBox="0 0 20 20"
   version="1.1"
   id="svg2597"
   inkscape:version="1.1.2 (0a00cf5339, 2022-02-04)"
   sodipodi:docname="no.svg"
   xmlns:inkscape="http://www.inkscape.org/namespaces/inkscape"
   xmlns:sodipodi="http://sodipodi.sourceforge.net/DTD/sodipodi-0.dtd"
   xmlns="http://www.w3.org/2000/svg"
   xmlns:svg="http://www.w3.org/2000/svg">
  <sodipodi:namedview
     id="namedview2599"
     pagecolor="#ffffff"
     bordercolor="#666666"
     borderopacity="1.0"
     inkscape:pageshadow="2"
     inkscape:pageopacity="0.0"
     inkscape:pagecheckerboard="0"
     inkscape:document-units="mm"
     showgrid="false"
     fit-margin-top="0"
     fit-margin-left="0"
     fit-margin-right="0"
     fit-margin-bottom="0"
     inkscape:zoom="4.0718557"
     inkscape:cx="106.33972"
     inkscape:cy="-1.3507355"
     inkscape:window-width="1877"
     inkscape:window-height="1060"
     inkscape:window-x="1959"
     inkscape:window-y="1095"
     inkscape:window-maximized="0"
     inkscape:current-layer="layer1" />
  <defs
     id="defs2594">
    <clipPath
       clipPathUnits="userSpaceOnUse"
       id="clipPath2047">
      <rect
         style="opacity:1;fill:#ff00ff;fill-opacity:1;stroke:none;stroke-width:1.5;stroke-miterlimit:4.7;stroke-dasharray:none;stroke-opacity:0.959286"
         id="rect2049"
         width="26.714878"
         height="26.175507"
         x="-7.3449249"
         y="-12.325286"
         transform="rotate(-14.196402)" />
    </clipPath>
    <clipPath
       clipPathUnits="userSpaceOnUse"
       id="clipPath2410">
      <path
         id="path2412"
         style="display:block;opacity:1;fill:#ff0000;fill-opacity:1;stroke:none;stroke-width:1.5;stroke-miterlimit:4.7;stroke-dasharray:none;stroke-opacity:0.959286"
         d="M 14.746932,-0.56718863 10.848978,11.525613 -2.9072885,15.031342 1.1090045,30.787487 22.585213,25.313402 23.402734,25.576952 30.222473,4.4211375 Z" />
    </clipPath>
    <inkscape:path-effect
       effect="powerclip"
       id="path-effect2414"
       is_visible="true"
       lpeversion="1"
       inverse="true"
       flatten="false"
       hide_clip="false"
       message="Use fill-rule evenodd on &lt;b&gt;fill and stroke&lt;/b&gt; dialog if no flatten result after convert clip to paths." />
  </defs>
  <g
     inkscape:label="Layer 1"
     inkscape:groupmode="layer"
     id="layer1"
     transform="translate(27.225363,-133.12747)">
    <path
       id="path18696"
       style="fill:#ffffff;fill-opacity:1;stroke:#000000;stroke-width:0.856558;stroke-miterlimit:4;stroke-dasharray:none;stroke-opacity:1"
       d="m -21.481604,136.34524 c 0.136098,5.4e-4 0.286633,0.0167 0.474952,0.0478 0.348423,0.0575 0.646201,0.0622 0.939282,0.0151 0.236007,-0.0378 0.490173,-0.0531 0.564805,-0.0337 0.075,0.0196 0.135891,0.10037 0.135891,0.1806 0,0.0943 0.03553,0.13123 0.101804,0.10578 0.05606,-0.0214 0.300508,-0.0781 0.543117,-0.1257 0.242609,-0.0479 0.52463,-0.0659 0.626777,-0.0403 0.110029,0.0275 0.18546,0.0982 0.185023,0.17307 -3.91e-4,0.0694 -0.07936,0.29544 -0.175727,0.5024 -0.09637,0.20697 -0.287548,0.55187 -0.424933,0.76664 -0.215508,0.3369 -0.255689,0.47086 -0.290373,0.97692 -0.02531,0.36932 -0.121998,0.82783 -0.261157,1.23761 -0.121553,0.35794 -0.226974,0.71613 -0.234596,0.7963 -0.0076,0.0802 -0.01009,0.22779 -0.0053,0.32799 0.0048,0.10016 0.08264,0.27303 0.172631,0.38422 0.110664,0.13676 0.381053,0.2827 0.8357,0.45105 0.369683,0.13689 0.943486,0.38554 1.275243,0.55241 0.331757,0.16688 0.813454,0.45284 1.070302,0.63563 0.256847,0.18279 0.669142,0.53199 0.916262,0.77595 0.247119,0.24397 0.589808,0.65237 0.761782,0.90741 0.171972,0.25504 0.406733,0.67084 0.521428,0.92379 0.114694,0.25295 0.274732,0.69954 0.355882,0.9924 0.08115,0.29284 0.147842,0.6233 0.147842,0.73434 0,0.11102 0.032,0.20183 0.07127,0.20183 0.03927,0 0.133369,-0.12323 0.208926,-0.27355 0.07556,-0.15031 0.174177,-0.38803 0.219548,-0.52851 0.04537,-0.14048 0.113616,-0.50119 0.151382,-0.80162 0.04533,-0.36064 0.04049,-1.03765 -0.0146,-1.99276 -0.07552,-1.30925 -0.07147,-1.49259 0.04338,-1.93123 0.06979,-0.26654 0.198325,-0.63231 0.285502,-0.81269 0.08717,-0.18036 0.286195,-0.46678 0.442639,-0.6365 0.20067,-0.21772 0.40002,-0.34491 0.676351,-0.43202 0.328454,-0.10356 0.461908,-0.1107 0.826407,-0.0429 0.239069,0.0445 0.5547239,0.13787 0.701583,0.20759 0.1468591,0.0698 0.3591503,0.25431 0.4718529,0.40989 0.1127026,0.15558 0.239259,0.44242 0.2810762,0.6374 0.059214,0.27611 0.052404,0.43407 -0.030982,0.71486 -0.058889,0.19831 -0.1755978,0.44766 -0.2593865,0.55418 -0.083788,0.10652 -0.2464764,0.24209 -0.3611931,0.30144 -0.1147173,0.0593 -0.2905404,0.10801 -0.3908501,0.10801 -0.1003064,0 -0.2613904,-0.0361 -0.3580954,-0.0801 -0.133092,-0.89729 -0.479367,-0.33419 -0.479367,-0.33419 -0.04429,0.11284 -0.08025,0.32591 -0.08012,0.47362 1.32e-4,0.1477 0.05218,0.77701 0.115972,1.39829 0.07503,0.73047 0.100179,1.39206 0.07082,1.87281 -0.02497,0.40888 -0.107051,0.98313 -0.182367,1.27568 -0.07531,0.29257 -0.31368,0.94154 -0.529397,1.44257 -0.215716,0.50102 -0.547952,1.14625 -0.73832,1.4337 -0.190369,0.28745 -0.563968,0.72634 -0.830391,0.97558 -0.283025,0.26475 -0.676985,0.54347 -0.94769,0.67015 -0.254829,0.11926 -0.634086,0.24173 -0.842785,0.27224 v 4.3e-4 c -0.208698,0.0305 -1.456919,0.0596 -2.773575,0.0647 -2.098968,0.007 -2.425336,-0.006 -2.650523,-0.11287 -0.158402,-0.0752 -0.294278,-0.21162 -0.354555,-0.35587 -0.06897,-0.16509 -0.07796,-0.30299 -0.03055,-0.46831 0.03695,-0.12884 0.15016,-0.31121 0.251862,-0.40546 0.150607,-0.13959 0.17287,-0.20377 0.119071,-0.34527 -0.03634,-0.0956 -0.224787,-0.41663 -0.418737,-0.71397 -0.203286,-0.19403 -0.332791,-0.80877 -0.371814,-0.28595 -0.01062,0.14029 -0.06903,0.55997 -0.129696,0.9322 -0.06067,0.37223 -0.178086,0.85847 -0.261156,1.08048 -0.106554,0.28479 -0.218717,0.44481 -0.380669,0.54357 -0.188187,0.11471 -0.36871,0.14009 -1.002137,0.1403 -0.683859,2.6e-4 -0.801163,-0.0189 -1.019395,-0.16598 -0.135612,-0.0914 -0.287638,-0.24714 -0.337735,-0.34614 -0.05009,-0.099 -0.09148,-0.33158 -0.09206,-0.51656 -7.36e-4,-0.23114 0.04625,-0.39612 0.150054,-0.52807 0.126525,-0.16083 0.20896,-0.1921 0.508593,-0.1921 0.324796,0 0.362112,-0.0176 0.405459,-0.19034 0.02627,-0.10462 0.02442,-0.4405 -0.004,-0.74674 -0.02839,-0.30621 -0.07531,-1.00103 -0.104459,-1.54391 -0.04684,-0.87258 -0.07464,-1.02495 -0.240354,-1.31199 -0.10311,-0.17859 -0.340071,-0.5872 -0.526295,-0.90784 -0.186228,-0.32068 -0.409691,-0.7631 -0.496642,-0.98356 -0.128408,-0.32555 -0.158748,-0.55825 -0.162451,-1.23894 -0.0035,-0.64519 0.0284,-0.93862 0.138547,-1.27524 0.07869,-0.24051 0.318932,-0.69963 0.534265,-1.02028 0.215336,-0.32067 0.438175,-0.6717 0.494873,-0.77994 0.0567,-0.10823 0.103132,-0.31275 0.103132,-0.45459 0,-0.20837 -0.07665,-0.34575 -0.399261,-0.71442 -0.219602,-0.25094 -0.486007,-0.59692 -0.591808,-0.76886 -0.13637,-0.22163 -0.203308,-0.45011 -0.230173,-0.7848 -0.0311,-0.38732 -0.0147,-0.49813 0.09251,-0.61659 0.07188,-0.0794 0.199756,-0.14453 0.28373,-0.14475 0.08397,-2.6e-4 0.277556,-0.0351 0.430246,-0.0774 0.155038,-0.0431 0.45651,-0.2393 0.682992,-0.4444 0.22305,-0.202 0.51327,-0.41201 0.644925,-0.46699 0.131653,-0.055 0.398205,-0.13631 0.59225,-0.1806 0.130242,-0.03 0.251657,-0.0447 0.387752,-0.0443 z"
       sodipodi:nodetypes="ccccsccccsscscccscscsscsscsccssccccsssscsccscscsscccccccsccccccccsccssccccccccccsccccccccccc" />
  </g>
</svg>
